<svg id="Layer_1" data-name="Layer 1" xmlns="http://www.w3.org/2000/svg" width="275" height="80" viewBox="0 0 275 80">
  <defs>
    <style>
      .cls-1 {
        fill: #adadad;
      }

      .cls-1, .cls-2 {
        stroke: #fff;
        stroke-miterlimit: 10;
      }

      .cls-2 {
        fill: none;
        stroke-width: 2px;
      }
    </style>
  </defs>
  <rect class="cls-1" x="1" y="-0.5" width="273" height="80"/>
  <rect class="cls-2" x="6" y="3.5" width="263" height="71"/>
  <g>
    <path d="M81.66,39.92l-.31.87c-1,2.94-.32,3,1.53,3.21v.47H77.59V44c.92-.29,1.31-.32,1.7-1.23L83.05,34l-.17-.51a3.42,3.42,0,0,0,1.61-1.3h.33L88,40.46c1.1,2.79,1,3,2.73,3.54v.47H85V44c1.65-.29,1.75-.61.82-3l-.41-1.07Zm3.33-1L83.44,35,82,38.9Z"/>
    <path d="M98.84,36.35h-.51C98,35,97.6,33.41,95.85,33.41a1.68,1.68,0,0,0-1.73,1.77c0,2.75,5.59,2.56,5.59,6.12,0,2.44-2.35,3.46-4.52,3.46a7.59,7.59,0,0,1-3.45-.86l-.56-3.37.52-.1c.56,1.66,1.8,3.55,3.81,3.55a1.82,1.82,0,0,0,2-1.83c0-2.88-5.6-2.64-5.6-6,0-2.27,2.16-3.52,4.24-3.52a5.7,5.7,0,0,1,2.89.76Z"/>
    <path d="M108.7,36.35h-.51c-.32-1.39-.73-2.94-2.48-2.94A1.68,1.68,0,0,0,104,35.18c0,2.75,5.59,2.56,5.59,6.12,0,2.44-2.35,3.46-4.52,3.46a7.59,7.59,0,0,1-3.45-.86L101,40.53l.52-.1c.56,1.66,1.8,3.55,3.81,3.55a1.82,1.82,0,0,0,2-1.83c0-2.88-5.6-2.64-5.6-6,0-2.27,2.16-3.52,4.24-3.52a5.64,5.64,0,0,1,2.88.76Z"/>
    <path d="M114.94,39v2.25c0,1.73,0,2.53,2.28,2.53s3.16-1.24,3.64-3.2h.51a11.85,11.85,0,0,1-.62,3.91h-10.3V44c2-.34,2.25-.22,2.25-3.3v-4c0-3.08-.22-3-2.25-3.3v-.47h10.07l-.33,3h-.52c-.12-2.23-1.63-2.26-3.49-2.26h-1.24V38h1.45c1.46,0,2.22-.11,2.65-1.66h.44a38.89,38.89,0,0,0-.07,4.32h-.47C118.6,39,117.8,39,116.32,39Z"/>
    <path d="M122.27,36.2l.39-3.83H123a.93.93,0,0,0,.66.51,4.89,4.89,0,0,0,.87,0h7.19c.61,0,1.19.08,1.53-.55h.35L134,36.2l-.47.08c-.68-2.41-1.94-2.65-4.29-2.65V40.7c0,3.08.23,3,2.55,3.3v.47h-7.34V44c2.33-.34,2.55-.22,2.55-3.3V33.63c-2.34,0-3.57.24-4.27,2.65Z"/>
    <path d="M142.7,36.35h-.51c-.32-1.39-.73-2.94-2.48-2.94A1.68,1.68,0,0,0,138,35.18c0,2.75,5.59,2.56,5.59,6.12,0,2.44-2.35,3.46-4.52,3.46a7.59,7.59,0,0,1-3.45-.86L135,40.53l.52-.1c.56,1.66,1.8,3.55,3.81,3.55a1.81,1.81,0,0,0,1.95-1.83c0-2.88-5.59-2.64-5.59-6,0-2.27,2.16-3.52,4.23-3.52a5.67,5.67,0,0,1,2.89.76Z"/>
    <path d="M154.64,44.47H144.45V44c2-.34,2.25-.22,2.25-3.3v-4c0-3.08-.22-3-2.25-3.3v-.47h6.73v.47c-2.34.21-2.24,1-2.24,3.3v6.25c0,.57-.25.77,1.55.77,2.9,0,3.57-1.09,4.93-3.43l.47.18Z"/>
    <path d="M160.55,40.7c0,3.08.22,3,2.25,3.3v.47h-6.74V44c2-.34,2.25-.22,2.25-3.3v-4c0-3.08-.22-3-2.25-3.3v-.47h6.74v.47c-2,.34-2.25.22-2.25,3.3Z"/>
    <path d="M171.6,36.35h-.51c-.32-1.39-.73-2.94-2.48-2.94a1.68,1.68,0,0,0-1.73,1.77c0,2.75,5.59,2.56,5.59,6.12,0,2.44-2.35,3.46-4.52,3.46a7.59,7.59,0,0,1-3.45-.86l-.56-3.37.52-.1c.56,1.66,1.8,3.55,3.81,3.55a1.81,1.81,0,0,0,1.95-1.83c0-2.88-5.59-2.64-5.59-6,0-2.27,2.16-3.52,4.23-3.52a5.67,5.67,0,0,1,2.89.76Z"/>
    <path d="M173.27,36.2l.39-3.83H174a.93.93,0,0,0,.66.51,4.89,4.89,0,0,0,.87,0h7.19c.61,0,1.19.08,1.53-.55h.35L185,36.2l-.47.08c-.68-2.41-1.94-2.65-4.29-2.65V40.7c0,3.08.23,3,2.55,3.3v.47h-7.34V44c2.33-.34,2.55-.22,2.55-3.3V33.63c-2.34,0-3.57.24-4.27,2.65Z"/>
    <path d="M190.08,39v2.25c0,1.73,0,2.53,2.28,2.53s3.16-1.24,3.64-3.2h.51a11.85,11.85,0,0,1-.62,3.91h-10.3V44c2-.34,2.25-.22,2.25-3.3v-4c0-3.08-.22-3-2.25-3.3v-.47h10.07l-.33,3h-.52c-.12-2.23-1.64-2.26-3.49-2.26h-1.24V38h1.45c1.46,0,2.22-.11,2.65-1.66h.44a36.6,36.6,0,0,0-.07,4.32h-.47C193.74,39,192.94,39,191.46,39Z"/>
  </g>
</svg>
