<svg id="Layer_1" data-name="Layer 1" xmlns="http://www.w3.org/2000/svg" width="275" height="80" viewBox="0 0 275 80">
  <defs>
    <style>
      .cls-1 {
        fill: #adadad;
      }

      .cls-1, .cls-2 {
        stroke: #fff;
        stroke-miterlimit: 10;
      }

      .cls-2 {
        fill: none;
        stroke-width: 2px;
      }
    </style>
  </defs>
  <rect class="cls-1" x="1" y="-0.5" width="273" height="80"/>
  <rect class="cls-2" x="6" y="3.5" width="263" height="71"/>
  <g>
    <path d="M15.46,44.47V44c2-.34,2.24-.22,2.24-3.3V36.18c0-2.24.07-2.55-2.24-2.79v-.47H20.3c2.84,0,8.43.34,8.43,5.64A5.56,5.56,0,0,1,26,43.42c-1.76,1.07-3.94,1-6,1ZM20,40.85c-.06,1.77,0,2.91,2.1,2.91,2.64,0,3.93-2.4,3.93-4.76,0-3.67-2.53-5.4-6-5.4Z"/>
    <path d="M34.23,39v2.25c0,1.73,0,2.53,2.27,2.53s3.17-1.24,3.64-3.2h.51A11.59,11.59,0,0,1,40,44.47H29.74V44c2-.34,2.24-.22,2.24-3.3v-4c0-3.08-.22-3-2.24-3.3v-.47H39.8l-.32,3H39c-.12-2.23-1.63-2.26-3.48-2.26H34.23V38h1.44c1.46,0,2.23-.11,2.65-1.66h.44a36.61,36.61,0,0,0-.06,4.32h-.48C37.88,39,37.08,39,35.6,39Z"/>
    <path d="M49.75,36.35h-.51c-.33-1.39-.73-2.94-2.49-2.94A1.69,1.69,0,0,0,45,35.18c0,2.75,5.59,2.56,5.59,6.12,0,2.44-2.34,3.46-4.52,3.46a7.59,7.59,0,0,1-3.45-.86l-.56-3.37.53-.1c.56,1.66,1.8,3.55,3.8,3.55a1.82,1.82,0,0,0,2-1.83c0-2.88-5.59-2.64-5.59-6,0-2.27,2.16-3.52,4.23-3.52a5.7,5.7,0,0,1,2.89.76Z"/>
    <path d="M56,40.7c0,3.08.22,3,2.24,3.3v.47H51.55V44c2-.34,2.24-.22,2.24-3.3v-4c0-3.08-.22-3-2.24-3.3v-.47h6.73v.47c-2,.34-2.24.22-2.24,3.3Z"/>
    <path d="M70.91,43.15h.92v.39a15,15,0,0,1-5.71,1.22c-3.52,0-6.72-2.21-6.72-5.88,0-4.09,3.59-6.25,7.28-6.25a11.77,11.77,0,0,1,4.33.9v3.24H70.5a4,4,0,0,0-4.11-3.36c-2.72,0-4.23,2.36-4.23,4.86,0,3.13,2,5.71,5.25,5.71,1.21,0,1.15-.29,1.26-1v-.89c0-2.2-.12-2.36-2.47-2.68v-.48h6v.48c-1.15.29-1.29.49-1.29,1.68Z"/>
    <path d="M75.31,36.74c0-1.75,0-3-2.21-3.35v-.47H77c2.15,2.78,5.1,5.61,7.55,8.46l0,0-.11-5.41c0-2-.54-2.28-2.55-2.55v-.47h5.17v.47c-1.49.14-1.58.85-1.58,3.62v7.57l-.76.37c-1.67-2-5.72-6.12-8.52-9.14,0,1.9,0,3.68.1,5.54.07,2.09.44,2.22,2.45,2.65v.47H73.22V44c1.24-.24,2.09-.17,2.09-2.47Z"/>
    <path d="M87.88,44.47V44c2-.34,2.24-.22,2.24-3.3V36.18c0-2.24.07-2.55-2.24-2.79v-.47h4.84c2.84,0,8.43.34,8.43,5.64a5.56,5.56,0,0,1-2.72,4.86c-1.76,1.07-3.94,1-6,1Zm4.48-3.62c0,1.77,0,2.91,2.11,2.91,2.64,0,3.93-2.4,3.93-4.76,0-3.67-2.53-5.4-6-5.4Z"/>
    <path d="M115.7,38.61c0,3.79-2.85,6.15-6.59,6.15s-6.53-2.27-6.53-6,2.86-6.1,6.51-6.1S115.7,34.7,115.7,38.61Zm-10.36-.17c0,2.4,1.12,5.54,4,5.54C112,44,113,41.25,113,39c0-2.42-1.16-5.61-4.06-5.61C106.27,33.41,105.34,36.32,105.34,38.44Z"/>
    <path d="M119,36.69c0-3.08-.22-3-2.24-3.3v-.47h6.73v.47c-2,.34-2.25.22-2.25,3.3v4c0,3.08.23,3,2.25,3.3v.47h-6.73V44c2-.34,2.24-.22,2.24-3.3Zm9.08,6.1a4.37,4.37,0,0,0,2.46,1.41l-.07.48a16,16,0,0,1-3.79-.53A3.84,3.84,0,0,1,125,43l-3.55-4.21,2.28-2.55c1.27-1.43,2.26-2.5.47-2.81v-.47h5.17v.47c-2.11.43-3.06,1.26-4.54,2.79l-1.39,1.44Z"/>
    <path d="M138.84,32.92h5.31v.47c-1.64.43-1.64.68-1.77,3.52l-.12,2.55c0,1.34-.09,2.87-1.07,3.89a5.41,5.41,0,0,1-4,1.41,6.09,6.09,0,0,1-3.93-1.24c-1.19-1.07-1-2.72-1-4.14V36.69c0-3.08-.22-3-2.24-3.3v-.47h6.73v.47c-2.35.21-2.25,1-2.25,3.3v2.38a6.22,6.22,0,0,0,.5,3.18,3.86,3.86,0,0,0,3.24,1.44c2.81,0,3.23-2,3.17-4.15l-.12-4.11c-.05-1.82-.87-1.72-2.47-2Z"/>
    <path d="M156.73,35.14h0l-4,9.5h-.51l-3.86-9.14h0l-.39,6.63c-.1,1.55.7,1.55,2,1.87v.47h-5.1V44c1.26-.38,1.6-.43,1.82-1.79l1-7.27c.14-1.26-.8-1.28-1.8-1.55v-.47h4.47v.34c-.44.59.27,1.87.51,2.43l2.4,5.5L156,34.85c.2-.46.58-1.15.14-1.59v-.34h4.81v.47c-1.7.36-2,.63-1.89,2.26l.29,5.49c.12,1.94.13,2.52,2.23,2.86v.47H155V44c2.33-.27,2.2-.83,2.08-3Z"/>
    <path d="M166.48,39v2.25c0,1.73,0,2.53,2.28,2.53s3.16-1.24,3.64-3.2h.51a11.84,11.84,0,0,1-.61,3.91H162V44c2-.34,2.24-.22,2.24-3.3v-4c0-3.08-.22-3-2.24-3.3v-.47h10.06l-.32,3h-.53c-.12-2.23-1.63-2.26-3.49-2.26h-1.24V38h1.45c1.46,0,2.23-.11,2.65-1.66H171a38.89,38.89,0,0,0-.07,4.32h-.47C170.14,39,169.34,39,167.86,39Z"/>
    <path d="M176,36.74c0-1.75,0-3-2.21-3.35v-.47h3.91c2.14,2.78,5.1,5.61,7.55,8.46l0,0-.1-5.41c0-2-.54-2.28-2.55-2.55v-.47h5.17v.47c-1.5.14-1.58.85-1.58,3.62v7.57l-.77.37c-1.66-2-5.71-6.12-8.51-9.14,0,1.9,0,3.68.1,5.54.07,2.09.44,2.22,2.45,2.65v.47h-5.58V44c1.24-.24,2.09-.17,2.09-2.47Z"/>
    <path d="M188.43,36.2l.39-3.83h.36a1,1,0,0,0,.66.51,4.89,4.89,0,0,0,.87,0h7.19c.61,0,1.19.08,1.53-.55h.36l.39,3.83-.48.08c-.68-2.41-1.94-2.65-4.28-2.65V40.7c0,3.08.22,3,2.55,3.3v.47h-7.35V44c2.33-.34,2.55-.22,2.55-3.3V33.63c-2.34,0-3.57.24-4.26,2.65Z"/>
    <path d="M203.2,39.92l-.3.87c-1,2.94-.33,3,1.53,3.21v.47h-5.29V44c.92-.29,1.31-.32,1.7-1.23L204.6,34l-.17-.51a3.46,3.46,0,0,0,1.61-1.3h.33l3.17,8.27c1.11,2.79,1,3,2.74,3.54v.47H206.5V44c1.65-.29,1.75-.61.82-3l-.41-1.07Zm3.34-1L205,35l-1.46,3.94Z"/>
    <path d="M211.14,36.2l.39-3.83h.36a1,1,0,0,0,.66.51,4.93,4.93,0,0,0,.87,0h7.19c.61,0,1.19.08,1.53-.55h.36l.39,3.83-.48.08c-.68-2.41-1.94-2.65-4.28-2.65V40.7c0,3.08.22,3,2.55,3.3v.47h-7.34V44c2.32-.34,2.55-.22,2.55-3.3V33.63c-2.35,0-3.57.24-4.27,2.65Z"/>
    <path d="M228,40.7c0,3.08.22,3,2.24,3.3v.47h-6.73V44c2-.34,2.24-.22,2.24-3.3v-4c0-3.08-.22-3-2.24-3.3v-.47h6.73v.47c-2,.34-2.24.22-2.24,3.3Z"/>
    <path d="M244.5,38.61c0,3.79-2.86,6.15-6.6,6.15s-6.53-2.27-6.53-6,2.86-6.1,6.51-6.1S244.5,34.7,244.5,38.61Zm-10.37-.17c0,2.4,1.12,5.54,4,5.54,2.69,0,3.62-2.73,3.62-5,0-2.42-1.15-5.61-4.06-5.61C235.06,33.41,234.13,36.32,234.13,38.44Z"/>
    <path d="M247.62,36.74c0-1.75-.05-3-2.21-3.35v-.47h3.91c2.15,2.78,5.1,5.61,7.55,8.46l0,0-.1-5.41c0-2-.54-2.28-2.55-2.55v-.47h5.17v.47c-1.5.14-1.58.85-1.58,3.62v7.57l-.76.37c-1.67-2-5.72-6.12-8.52-9.14-.05,1.9,0,3.68.1,5.54.07,2.09.44,2.22,2.45,2.65v.47h-5.58V44c1.24-.24,2.09-.17,2.09-2.47Z"/>
  </g>
</svg>
