<svg id="Layer_1" data-name="Layer 1" xmlns="http://www.w3.org/2000/svg" width="250" height="250" viewBox="0 0 250 250">
  <defs>
    <style>
      .cls-1 {
        fill-rule: evenodd;
      }
    </style>
  </defs>
  <path id="Path_3" data-name="Path 3" class="cls-1" d="M125,26.53a368.22,368.22,0,0,1,47.9,1.34,61.73,61.73,0,0,1,22.62,4,46.83,46.83,0,0,1,22.62,22.62,61.73,61.73,0,0,1,4,22.62c0,12,1.33,16,1.33,47.9a366.46,366.46,0,0,1-1.33,47.9,61.77,61.77,0,0,1-4,22.62,46.77,46.77,0,0,1-22.62,22.61,61.74,61.74,0,0,1-22.62,4c-12,0-16,1.33-47.9,1.33a366.46,366.46,0,0,1-47.9-1.33,61.74,61.74,0,0,1-22.62-4,46.77,46.77,0,0,1-22.62-22.61,61.77,61.77,0,0,1-4-22.62c0-12-1.33-16-1.33-47.9a366.46,366.46,0,0,1,1.33-47.9,61.73,61.73,0,0,1,4-22.62,48.16,48.16,0,0,1,9.31-13.31,22.51,22.51,0,0,1,13.31-9.31,61.73,61.73,0,0,1,22.62-4A368.22,368.22,0,0,1,125,26.53m0-21.28A392.67,392.67,0,0,0,75.77,6.58,82.2,82.2,0,0,0,46.5,11.9,52.06,52.06,0,0,0,25.22,25.2,52.06,52.06,0,0,0,11.9,46.5,60.64,60.64,0,0,0,6.58,75.77,392.67,392.67,0,0,0,5.25,125a392.73,392.73,0,0,0,1.33,49.23,82.3,82.3,0,0,0,5.33,29.28,52,52,0,0,0,13.31,21.28A52,52,0,0,0,46.5,238.1a82.3,82.3,0,0,0,29.28,5.33A392.51,392.51,0,0,0,125,244.75a392.68,392.68,0,0,0,49.23-1.34,82,82,0,0,0,29.28-5.32,55.82,55.82,0,0,0,34.59-34.6,82,82,0,0,0,5.33-29.28c0-13.29,1.32-17.28,1.32-49.21a392.67,392.67,0,0,0-1.33-49.23,82.22,82.22,0,0,0-5.33-29.28A52,52,0,0,0,224.78,25.2,52.06,52.06,0,0,0,203.5,11.9a82.2,82.2,0,0,0-29.27-5.32A392.67,392.67,0,0,0,125,5.25m0,58.54A60.22,60.22,0,0,0,63.79,123c0,.66,0,1.32,0,2A61.21,61.21,0,1,0,125,63.79h0m0,101.13a39.2,39.2,0,0,1-39.92-38.47c0-.48,0-1,0-1.45a39.2,39.2,0,0,1,38.47-39.92c.48,0,1,0,1.45,0a39.2,39.2,0,0,1,39.92,38.47c0,.48,0,1,0,1.45a39.2,39.2,0,0,1-38.47,39.92c-.48,0-1,0-1.45,0M188.87,46.5a14.64,14.64,0,1,0,14.64,14.64h0A14.76,14.76,0,0,0,188.87,46.5"/>
</svg>
