<svg id="Layer_1" data-name="Layer 1" xmlns="http://www.w3.org/2000/svg" width="275" height="80" viewBox="0 0 275 80">
  <defs>
    <style>
      .cls-1 {
        fill: #adadad;
      }

      .cls-1, .cls-2 {
        stroke: #fff;
        stroke-miterlimit: 10;
      }

      .cls-2 {
        fill: none;
        stroke-width: 2px;
      }
    </style>
  </defs>
  <rect class="cls-1" x="1" y="-0.5" width="273" height="80"/>
  <rect class="cls-2" x="6" y="3.5" width="263" height="71"/>
  <g>
    <path d="M83.15,40.7c0,2.31-.1,3.09,2.64,3.3v.47H78.66V44c2-.34,2.25-.22,2.25-3.3V36.18c0-2.55-.16-2.5-2.25-2.79v-.47H84c1.6,0,5,0,5,3,0,2.59-2.63,3.3-4.7,3.71l-.12-.5a2.7,2.7,0,0,0,2.28-2.77c0-2-1.38-2.78-3.27-2.78Z"/>
    <path d="M94.42,40.7c0,3.08.22,3,2.25,3.3v.47H89.93V44c2-.34,2.25-.22,2.25-3.3v-4c0-3.08-.22-3-2.25-3.3v-.47h6.74v.47c-2,.34-2.25.22-2.25,3.3Z"/>
    <path d="M107.55,44.47H97.36V44c2-.34,2.25-.22,2.25-3.3v-4c0-3.08-.22-3-2.25-3.3v-.47h6.73v.47c-2.34.21-2.24,1-2.24,3.3v6.25c0,.57-.25.77,1.55.77,2.9,0,3.57-1.09,4.93-3.43l.47.18Z"/>
    <path d="M122.47,38.61c0,3.79-2.85,6.15-6.59,6.15s-6.53-2.27-6.53-6,2.85-6.1,6.51-6.1S122.47,34.7,122.47,38.61Zm-10.37-.17c0,2.4,1.12,5.54,4,5.54,2.68,0,3.62-2.73,3.62-5,0-2.42-1.16-5.61-4.07-5.61C113,33.41,112.1,36.32,112.1,38.44Z"/>
    <path d="M123.46,36.2l.39-3.83h.36a.93.93,0,0,0,.66.51,4.89,4.89,0,0,0,.87,0h7.19c.61,0,1.19.08,1.53-.55h.35l.39,3.83-.47.08c-.68-2.41-1.94-2.65-4.29-2.65V40.7c0,3.08.23,3,2.55,3.3v.47h-7.34V44c2.33-.34,2.55-.22,2.55-3.3V33.63c-2.35,0-3.57.24-4.27,2.65Z"/>
    <path d="M137.43,35.62c-.83-1.89-.88-1.79-2.21-2.23v-.47h6v.47c-2,.46-2.06.46-1,3L142.63,42l1.48-3.71c1.84-4.61,1.31-4.54-.86-4.88v-.47h5.32v.47c-1.59.21-2,1.29-3.17,4L142.17,45l-.69-.14Z"/>
    <path d="M153.24,40.7c0,3.08.22,3,2.25,3.3v.47h-6.74V44c2-.34,2.25-.22,2.25-3.3v-4c0-3.08-.22-3-2.25-3.3v-.47h6.74v.47c-2,.34-2.25.22-2.25,3.3Z"/>
    <path d="M156.18,44.47V44c2-.34,2.25-.22,2.25-3.3V36.18c0-2.24.06-2.55-2.25-2.79v-.47H161c2.84,0,8.43.34,8.43,5.64a5.58,5.58,0,0,1-2.72,4.86c-1.77,1.07-4,1-6,1Zm4.49-3.62c0,1.77,0,2.91,2.11,2.91,2.63,0,3.92-2.4,3.92-4.76,0-3.67-2.53-5.4-6-5.4Z"/>
    <path d="M175,39v2.25c0,1.73,0,2.53,2.28,2.53s3.16-1.24,3.64-3.2h.51a11.85,11.85,0,0,1-.62,3.91h-10.3V44c2-.34,2.25-.22,2.25-3.3v-4c0-3.08-.22-3-2.25-3.3v-.47h10.07l-.33,3h-.52c-.12-2.23-1.64-2.26-3.49-2.26H175V38h1.45c1.46,0,2.22-.11,2.65-1.66h.44a36.6,36.6,0,0,0-.07,4.32h-.48C178.6,39,177.81,39,176.33,39Z"/>
    <path d="M195.91,38.61c0,3.79-2.86,6.15-6.6,6.15s-6.52-2.27-6.52-6,2.85-6.1,6.51-6.1S195.91,34.7,195.91,38.61Zm-10.37-.17c0,2.4,1.12,5.54,4,5.54,2.68,0,3.62-2.73,3.62-5,0-2.42-1.16-5.61-4.07-5.61C186.48,33.41,185.54,36.32,185.54,38.44Z"/>
  </g>
</svg>
