<svg id="Layer_1" data-name="Layer 1" xmlns="http://www.w3.org/2000/svg" width="275" height="80" viewBox="0 0 275 80">
  <defs>
    <style>
      .cls-1 {
        fill: #adadad;
      }

      .cls-1, .cls-2 {
        stroke: #fff;
        stroke-miterlimit: 10;
      }

      .cls-2 {
        fill: none;
        stroke-width: 2px;
      }
    </style>
  </defs>
  <rect class="cls-1" x="1" y="-0.5" width="273" height="80"/>
  <rect class="cls-2" x="6" y="3.5" width="263" height="71"/>
  <g>
    <path d="M112.39,40.7c0,2.31-.1,3.09,2.64,3.3v.47H107.9V44c2-.34,2.25-.22,2.25-3.3V36.18c0-2.55-.16-2.5-2.25-2.79v-.47h5.29c1.6,0,5,0,5,3,0,2.59-2.63,3.3-4.7,3.71l-.12-.5a2.69,2.69,0,0,0,2.27-2.77c0-2-1.37-2.78-3.26-2.78Z"/>
    <path d="M123.66,40.7c0,3.08.22,3,2.25,3.3v.47h-6.74V44c2-.34,2.25-.22,2.25-3.3v-4c0-3.08-.22-3-2.25-3.3v-.47h6.74v.47c-2,.34-2.25.22-2.25,3.3Z"/>
    <path d="M126.52,36.2l.39-3.83h.36a.93.93,0,0,0,.66.51,4.89,4.89,0,0,0,.87,0H136c.61,0,1.19.08,1.53-.55h.35l.39,3.83-.47.08c-.68-2.41-1.94-2.65-4.29-2.65V40.7c0,3.08.23,3,2.55,3.3v.47h-7.34V44c2.33-.34,2.55-.22,2.55-3.3V33.63c-2.34,0-3.57.24-4.27,2.65Z"/>
    <path d="M150.49,36.77H150c-.41-1.92-1.57-3.36-3.71-3.36-2.84,0-4.25,2.53-4.25,5.15s1.62,5.42,4.4,5.42c2.33,0,3.47-1.82,4.25-3.72l.51.17L150.11,44a9.48,9.48,0,0,1-3.82.76c-3.66,0-7-2-7-5.89s3.45-6.24,7.15-6.24a9.08,9.08,0,0,1,4.07.88Z"/>
    <path d="M156.34,40.7c0,2.31-.11,3.09,2.24,3.3v.47h-6.73V44c2-.34,2.24-.22,2.24-3.3v-4c0-3.08-.22-3-2.24-3.3v-.47h6.73v.47c-2.35.21-2.24,1-2.24,3.3v1.19h6.18V36.69c0-2.31.1-3.09-2.24-3.3v-.47H167v.47c-2,.34-2.24.22-2.24,3.3v4c0,3.08.22,3,2.24,3.3v.47h-6.73V44c2.34-.21,2.24-1,2.24-3.3V38.9h-6.18Z"/>
  </g>
</svg>
