<svg id="Layer_1" data-name="Layer 1" xmlns="http://www.w3.org/2000/svg" width="275" height="80" viewBox="0 0 275 80">
  <defs>
    <style>
      .cls-1 {
        fill: #adadad;
      }

      .cls-1, .cls-2 {
        stroke: #fff;
        stroke-miterlimit: 10;
      }

      .cls-2 {
        fill: none;
        stroke-width: 2px;
      }
    </style>
  </defs>
  <rect class="cls-1" x="1" y="-0.5" width="273" height="80"/>
  <rect class="cls-2" x="6" y="3.5" width="263" height="71"/>
  <g>
    <path d="M55.85,36.35h-.51c-.32-1.39-.73-2.94-2.48-2.94a1.69,1.69,0,0,0-1.74,1.77c0,2.75,5.6,2.56,5.6,6.12,0,2.44-2.35,3.46-4.53,3.46a7.66,7.66,0,0,1-3.45-.86l-.56-3.37.53-.1c.56,1.66,1.8,3.55,3.81,3.55a1.81,1.81,0,0,0,1.95-1.83c0-2.88-5.59-2.64-5.59-6,0-2.27,2.16-3.52,4.23-3.52a5.67,5.67,0,0,1,2.89.76Z"/>
    <path d="M62.09,39v2.25c0,1.73,0,2.53,2.28,2.53s3.16-1.24,3.63-3.2h.51a11.59,11.59,0,0,1-.61,3.91H57.6V44c2-.34,2.24-.22,2.24-3.3v-4c0-3.08-.22-3-2.24-3.3v-.47H67.66l-.32,3h-.53c-.12-2.23-1.63-2.26-3.48-2.26H62.09V38h1.44c1.47,0,2.23-.11,2.66-1.66h.44a34.58,34.58,0,0,0-.07,4.32h-.48C65.74,39,64.94,39,63.47,39Z"/>
    <path d="M86.33,35.14h0l-4,9.5h-.51L77.93,35.5h0l-.39,6.63c-.1,1.55.69,1.55,2,1.87v.47h-5.1V44c1.26-.38,1.6-.43,1.82-1.79l1-7.27c.14-1.26-.79-1.28-1.8-1.55v-.47H79.9v.34c-.44.59.28,1.87.51,2.43l2.4,5.5,2.75-6.34c.21-.46.58-1.15.14-1.59v-.34h4.81v.47c-1.7.36-2,.63-1.89,2.26l.29,5.49c.12,1.94.14,2.52,2.23,2.86v.47H84.58V44c2.33-.27,2.19-.83,2.07-3Z"/>
    <path d="M96.14,40.7c0,3.08.22,3,2.24,3.3v.47H91.65V44c2-.34,2.25-.22,2.25-3.3v-4c0-3.08-.23-3-2.25-3.3v-.47h6.73v.47c-2,.34-2.24.22-2.24,3.3Z"/>
    <path d="M101.14,36.74c0-1.75,0-3-2.21-3.35v-.47h3.91c2.14,2.78,5.1,5.61,7.54,8.46l0,0-.1-5.41c0-2-.55-2.28-2.55-2.55v-.47h5.16v.47c-1.49.14-1.58.85-1.58,3.62v7.57l-.76.37c-1.67-2-5.71-6.12-8.52-9.14,0,1.9,0,3.68.1,5.54.07,2.09.45,2.22,2.45,2.65v.47H99.05V44c1.24-.24,2.09-.17,2.09-2.47Z"/>
    <path d="M118.19,39v2.25c0,1.73,0,2.53,2.28,2.53s3.16-1.24,3.63-3.2h.51a11.59,11.59,0,0,1-.61,3.91H113.7V44c2-.34,2.24-.22,2.24-3.3v-4c0-3.08-.22-3-2.24-3.3v-.47h10.06l-.32,3h-.53c-.12-2.23-1.63-2.26-3.48-2.26h-1.24V38h1.44c1.46,0,2.23-.11,2.65-1.66h.45a34.58,34.58,0,0,0-.07,4.32h-.48C121.84,39,121,39,119.56,39Z"/>
    <path d="M135.19,40.7c0,2.31-.11,3.09,2.63,3.3v.47H130.7V44c2-.34,2.24-.22,2.24-3.3V36.18c0-2.55-.15-2.5-2.24-2.79v-.47H136c1.59,0,5,0,5,3,0,2.59-2.63,3.3-4.71,3.71l-.12-.5a2.7,2.7,0,0,0,2.28-2.77c0-2-1.38-2.78-3.26-2.78Z"/>
    <path d="M152.1,44.47H141.92V44c2-.34,2.24-.22,2.24-3.3v-4c0-3.08-.22-3-2.24-3.3v-.47h6.73v.47c-2.35.21-2.24,1-2.24,3.3v6.25c0,.57-.26.77,1.54.77,2.91,0,3.57-1.09,4.93-3.43l.48.18Z"/>
    <path d="M157,39.92l-.31.87c-1,2.94-.32,3,1.53,3.21v.47h-5.28V44c.92-.29,1.31-.32,1.7-1.23L158.37,34l-.17-.51a3.44,3.44,0,0,0,1.62-1.3h.32l3.18,8.27c1.11,2.79,1,3,2.74,3.54v.47h-5.78V44c1.65-.29,1.75-.61.81-3l-.4-1.07Zm3.33-1L158.77,35,157.3,38.9Z"/>
    <path d="M168.3,36.69c0-3.08-.22-3-2.24-3.3v-.47h6.73v.47c-2,.34-2.24.22-2.24,3.3v4c0,3.08.22,3,2.24,3.3v.47h-6.73V44c2-.34,2.24-.22,2.24-3.3Zm9.08,6.1a4.37,4.37,0,0,0,2.46,1.41l-.06.48a15.83,15.83,0,0,1-3.79-.53A3.82,3.82,0,0,1,174.3,43l-3.55-4.21L173,36.2c1.27-1.43,2.26-2.5.47-2.81v-.47h5.17v.47c-2.11.43-3.06,1.26-4.54,2.79l-1.39,1.44Z"/>
    <path d="M182.82,39.92l-.31.87c-1,2.94-.32,3,1.53,3.21v.47h-5.28V44c.92-.29,1.31-.32,1.7-1.23L184.21,34l-.17-.51a3.44,3.44,0,0,0,1.62-1.3H186l3.18,8.27c1.11,2.79,1,3,2.74,3.54v.47h-5.78V44c1.65-.29,1.75-.61.81-3l-.4-1.07Zm3.33-1L184.61,35l-1.47,3.94Z"/>
    <path d="M190.76,36.2l.39-3.83h.36a1,1,0,0,0,.66.51,4.89,4.89,0,0,0,.87,0h7.19c.61,0,1.19.08,1.53-.55h.36l.39,3.83-.48.08c-.68-2.41-1.94-2.65-4.28-2.65V40.7c0,3.08.22,3,2.55,3.3v.47H193V44c2.33-.34,2.55-.22,2.55-3.3V33.63c-2.34,0-3.57.24-4.26,2.65Z"/>
    <path d="M207.57,39v2.25c0,1.73,0,2.53,2.28,2.53s3.16-1.24,3.64-3.2H214a12.11,12.11,0,0,1-.61,3.91H203.08V44c2-.34,2.25-.22,2.25-3.3v-4c0-3.08-.22-3-2.25-3.3v-.47h10.07l-.32,3h-.53c-.12-2.23-1.63-2.26-3.49-2.26h-1.24V38H209c1.46,0,2.22-.11,2.65-1.66h.44a38.89,38.89,0,0,0-.07,4.32h-.47C211.23,39,210.43,39,209,39Z"/>
    <path d="M217.23,36.18c0-2.3-.12-2.62-2.25-2.79v-.47h5.29c2.09,0,4.91,0,4.91,2.7A3.13,3.13,0,0,1,223,38.41c1.26,2.48,3,5.13,5.82,5.79l-.07.48c-1.51-.09-3.26.07-4.59-.85a10.63,10.63,0,0,1-2.36-3.16c-.8-1.53-.68-1.43-2.3-1.67v1.7c0,2.31-.1,3.09,2.64,3.3v.47H215V44c2-.34,2.25-.22,2.25-3.3Zm2.24,2.23c1.58-.12,3.16-.8,3.16-2.64s-1.63-2.23-3.16-2.23Z"/>
  </g>
</svg>
