<svg id="Layer_1" data-name="Layer 1" xmlns="http://www.w3.org/2000/svg" width="275" height="80" viewBox="0 0 275 80">
  <defs>
    <style>
      .cls-1 {
        fill: #adadad;
      }

      .cls-1, .cls-2 {
        stroke: #fff;
        stroke-miterlimit: 10;
      }

      .cls-2 {
        fill: none;
        stroke-width: 2px;
      }
    </style>
  </defs>
  <rect class="cls-1" x="1" y="-0.5" width="273" height="80"/>
  <rect class="cls-2" x="6" y="3.5" width="263" height="71"/>
  <g>
    <path d="M87.54,40.7c0,2.31-.1,3.09,2.63,3.3v.47H83.05V44c2-.34,2.24-.22,2.24-3.3V36.18c0-2.55-.15-2.5-2.24-2.79v-.47h5.29c1.59,0,5,0,5,3,0,2.59-2.63,3.3-4.71,3.71l-.12-.5a2.7,2.7,0,0,0,2.28-2.77c0-2-1.38-2.78-3.26-2.78Z"/>
    <path d="M107.82,38.61c0,3.79-2.86,6.15-6.6,6.15s-6.53-2.27-6.53-6,2.86-6.1,6.51-6.1S107.82,34.7,107.82,38.61Zm-10.37-.17c0,2.4,1.12,5.54,4,5.54,2.69,0,3.62-2.73,3.62-5,0-2.42-1.15-5.61-4.06-5.61C98.38,33.41,97.45,36.32,97.45,38.44Z"/>
    <path d="M111.13,36.18c0-2.3-.12-2.62-2.24-2.79v-.47h5.29c2.09,0,4.91,0,4.91,2.7a3.13,3.13,0,0,1-2.21,2.79c1.26,2.48,3,5.13,5.81,5.79l-.07.48c-1.51-.09-3.26.07-4.59-.85a10.8,10.8,0,0,1-2.36-3.16c-.8-1.53-.68-1.43-2.29-1.67v1.7c0,2.31-.11,3.09,2.63,3.3v.47h-7.12V44c2-.34,2.24-.22,2.24-3.3Zm2.25,2.23c1.58-.12,3.16-.8,3.16-2.64s-1.63-2.23-3.16-2.23Z"/>
    <path d="M121.45,36.2l.39-3.83h.36a1,1,0,0,0,.66.51,4.89,4.89,0,0,0,.87,0h7.19c.61,0,1.19.08,1.53-.55h.36l.39,3.83-.48.08c-.68-2.41-1.94-2.65-4.28-2.65V40.7c0,3.08.22,3,2.55,3.3v.47h-7.35V44c2.33-.34,2.55-.22,2.55-3.3V33.63c-2.34,0-3.57.24-4.26,2.65Z"/>
    <path d="M138.26,39.19V40.7c0,2.31-.1,3.09,2.69,3.3v.47h-7.17V44c2-.34,2.24-.22,2.24-3.3v-4c0-3.08-.22-3-2.24-3.3v-.47h10.06L143.43,36h-.54c-.09-2.22-1.43-2.36-3.33-2.36h-1.3v4.54h1.47c1.46,0,2.24-.1,2.65-1.65h.46c-.09,1.48-.12,3-.11,4.45h-.44c-.3-1.78-1-1.78-2.63-1.78Z"/>
    <path d="M157.86,38.61c0,3.79-2.85,6.15-6.59,6.15s-6.53-2.27-6.53-6,2.86-6.1,6.51-6.1S157.86,34.7,157.86,38.61Zm-10.36-.17c0,2.4,1.12,5.54,4,5.54,2.69,0,3.62-2.73,3.62-5,0-2.42-1.16-5.61-4.06-5.61C148.43,33.41,147.5,36.32,147.5,38.44Z"/>
    <path d="M169.12,44.47H158.94V44c2-.34,2.24-.22,2.24-3.3v-4c0-3.08-.22-3-2.24-3.3v-.47h6.73v.47c-2.35.21-2.25,1-2.25,3.3v6.25c0,.57-.25.77,1.55.77,2.91,0,3.57-1.09,4.93-3.43l.48.18Z"/>
    <path d="M175,40.7c0,3.08.23,3,2.25,3.3v.47h-6.73V44c2-.34,2.24-.22,2.24-3.3v-4c0-3.08-.22-3-2.24-3.3v-.47h6.73v.47c-2,.34-2.25.22-2.25,3.3Z"/>
    <path d="M191.52,38.61c0,3.79-2.85,6.15-6.59,6.15s-6.53-2.27-6.53-6,2.86-6.1,6.51-6.1S191.52,34.7,191.52,38.61Zm-10.37-.17c0,2.4,1.13,5.54,4,5.54,2.69,0,3.62-2.73,3.62-5,0-2.42-1.16-5.61-4.06-5.61C182.09,33.41,181.15,36.32,181.15,38.44Z"/>
  </g>
</svg>
